<svg width="179" height="179" viewBox="0 0 179 179" fill="none" xmlns="http://www.w3.org/2000/svg">
<circle cx="89.5" cy="89.5" r="89.5" fill="white"/>
<path d="M108.23 57.8825C108.913 57.8714 108.913 57.8714 109.611 57.8601C117.955 57.8262 126.065 60.7749 132.059 66.6339C139.356 74.0762 141.839 84.2838 141.763 94.4779C141.618 100.173 140.761 105.856 139.13 111.314C139.011 111.724 139.011 111.724 138.89 112.143C136.172 121.398 131.83 129.788 125.526 137.09C125.152 137.541 125.152 137.541 124.772 138.002C120.533 142.974 114.052 147.553 107.382 148.295C106.394 148.344 105.415 148.355 104.426 148.345C104.08 148.342 103.734 148.34 103.378 148.338C100.86 148.283 98.7812 147.931 96.5275 146.756C96.2783 146.644 96.0291 146.533 95.7724 146.418C94.1064 145.649 92.6564 144.653 91.1855 143.561C90.475 143.112 90.475 143.112 89.7283 143.224C88.8554 143.601 88.1959 144.093 87.4433 144.675C82.5426 148.202 77.213 149.118 71.2969 148.394C62.6929 146.687 55.6933 139.655 50.7035 132.794C50.5551 132.595 50.4067 132.396 50.2538 132.191C40.8686 119.518 36.5742 102.688 38.4197 87.0818C40.0509 78.1155 44.0666 69.8857 51.6153 64.4789C58.4221 59.9443 65.8008 58.1918 73.9064 58.1733C74.3525 58.1717 74.7986 58.1701 75.2583 58.1684C78.7037 58.2088 81.8785 58.7414 85.2285 59.5012C89.8661 60.5257 93.8469 59.9522 98.3832 58.6656C101.631 57.8678 104.899 57.8958 108.23 57.8825ZM96.0418 64.6212C91.5594 65.7424 87.9213 65.7494 83.4633 64.4062C77.1971 62.6687 68.6602 62.9814 62.5175 65.132C62.0883 65.2796 61.6592 65.4273 61.217 65.5795C53.9763 68.3803 49.2328 73.5085 45.9488 80.4169C42.9189 87.5556 42.6405 96.2681 44.2595 103.796C44.3209 104.155 44.3823 104.514 44.4455 104.884C46.3646 115.259 50.9466 124.619 57.5055 132.794C57.733 133.082 57.9606 133.37 58.195 133.667C61.3724 137.477 67.0163 142.382 72.1729 142.887C77.8648 143.092 82.1163 142.438 86.5035 138.522C86.8049 138.259 87.1062 137.996 87.4167 137.725C88.1923 137.042 88.9614 136.353 89.7255 135.658C90.8032 136.135 91.4713 136.64 92.2539 137.515C95.5627 140.894 99.7608 142.866 104.493 142.952C110.562 142.881 115.979 139.492 120.156 135.3C126.261 128.812 130.093 121.06 133.044 112.746C133.134 112.498 133.225 112.251 133.319 111.996C137.223 101.31 137.982 88.4955 133.342 77.9389C130.74 72.398 126.18 67.922 120.548 65.5235C112.633 62.7287 104.153 62.5801 96.0418 64.6212Z" fill="#2844B3"/>
<path d="M121.945 10C122.182 10 122.418 10 122.661 10C125.041 19.3242 126.816 29.258 123.735 38.64C123.606 39.0355 123.476 39.431 123.342 39.8385C121.748 44.1134 119.165 46.9132 115.143 49.022C114.867 49.1775 114.591 49.333 114.306 49.4933C109.262 51.8395 102.35 50.7097 97.192 49.2036C96.4521 48.9901 96.4521 48.9901 95.3723 48.822C94.2869 48.5702 93.7396 48.377 92.9474 47.59C91.6108 44.2464 91.7817 40.4194 91.7392 36.8724C91.7315 36.3133 91.7315 36.3133 91.7236 35.7429C91.7495 31.7817 92.583 28.5855 95.4534 25.752C99.1129 22.7607 103.657 21.7502 108.118 20.5386C113.385 19.1045 117.9 16.9558 120.831 12.1354C121.228 11.4346 121.592 10.7239 121.945 10Z" fill="#26B23C"/>
<path d="M77.9115 27.9C85.2003 32.2494 88.9376 40.3926 90.9525 48.3218C91.7178 51.5043 92.2855 54.6878 92.2315 57.972C91.4278 58.3739 90.9733 58.378 90.0835 58.3747C89.707 58.3761 89.707 58.3761 89.3228 58.3775C88.6515 58.33 88.6515 58.33 87.9355 57.972C87.7569 57.0747 87.6152 56.1918 87.488 55.287C86.1245 46.8044 82.0558 38.9244 75.0028 33.7902C73.3605 32.5585 73.3605 32.5585 73.0534 31.4772C72.9832 30.2087 73.1555 29.4647 73.9288 28.4594C75.3823 27.3906 76.1419 27.5166 77.9115 27.9Z" fill="#4D453B"/>
<g clip-path="url(#clip0_444_315)">
<path fill-rule="evenodd" clip-rule="evenodd" d="M89.225 86.6691C100.32 75.2641 128.06 95.2216 89.225 120.884C50.39 95.2241 78.13 75.2641 89.225 86.6691Z" fill="#FE251B"/>
</g>
<defs>
<clipPath id="clip0_444_315">
<rect width="40" height="40" fill="white" transform="translate(69.2256 83.384)"/>
</clipPath>
</defs>
</svg>
