<?xml version="1.0" encoding="UTF-8"?>
<svg version="1.1" xmlns="http://www.w3.org/2000/svg" width="500" height="500">
<path d="M0 0 C165 0 330 0 500 0 C500 165 500 330 500 500 C335 500 170 500 0 500 C0 335 0 170 0 0 Z " fill="#FEFEFE" transform="translate(0,0)"/>
<path d="M0 0 C5.62442733 5.32940661 9.74509146 11.21847216 13.55859375 17.9375 C14.02136719 18.75089844 14.48414063 19.56429687 14.9609375 20.40234375 C29.31242115 47.31682828 27.0756882 82.0680402 18.79443359 110.55053711 C17.80369377 113.71243059 16.69109405 116.82394962 15.55859375 119.9375 C15.10080959 121.25885398 14.64379442 122.58047459 14.1875 123.90234375 C10.74969614 133.64927889 6.43230591 142.83128944 1.55859375 151.9375 C0.99269531 152.99839844 0.42679688 154.05929687 -0.15625 155.15234375 C-4.5374299 162.99723293 -9.76242519 170.00396416 -15.44140625 176.9375 C-16.17359375 177.83726562 -16.90578125 178.73703125 -17.66015625 179.6640625 C-27.46671571 191.14057955 -41.93164161 202.20285527 -57.44140625 203.9375 C-71.75077388 204.99424507 -83.03915219 201.69280222 -94.44140625 192.9375 C-97.5885656 190.06480222 -100.55968259 187.07537687 -103.44140625 183.9375 C-106.96863524 185.45147044 -109.30620979 187.54418482 -112.06640625 190.1875 C-123.84968167 200.94990427 -135.51265679 204.96948491 -151.28515625 204.47265625 C-164.14900287 203.51933626 -174.16718535 196.42526696 -183.44140625 187.9375 C-184.19550781 187.32390625 -184.94960937 186.7103125 -185.7265625 186.078125 C-213.19561506 163.40525622 -230.16099298 121.82168108 -234.02734375 87.2109375 C-236.49823854 59.77512473 -233.64516907 32.57452673 -216.19140625 10.1875 C-203.62227664 -4.36734084 -187.96089538 -12.06986958 -169.44140625 -16.0625 C-168.68931885 -16.2375708 -167.93723145 -16.4126416 -167.16235352 -16.59301758 C-162.03622335 -17.47749926 -156.83330387 -17.28805333 -151.64355469 -17.30273438 C-149.60698485 -17.31230922 -147.57148406 -17.34330618 -145.53515625 -17.375 C-134.81607609 -17.46151501 -125.01582425 -15.9458435 -114.68041992 -12.98510742 C-104.41733453 -10.06174873 -94.46384445 -12.69030689 -84.39624023 -15.19555664 C-56.19863247 -22.19751129 -22.84151625 -19.29651293 0 0 Z " fill="#FEFDFE" transform="translate(355.44140625,219.0625)"/>
<path d="M0 0 C10.09302506 6.78948473 17.46732576 19.20074957 20 31 C22.66146603 62.99632822 8.87119898 85.29524228 -11 109 C-14.01812804 112.65209748 -17.01292876 116.32247459 -20 120 C-20.43602539 120.52964355 -20.87205078 121.05928711 -21.32128906 121.60498047 C-30.52228487 132.80377601 -38.54639663 144.48454816 -44 158 C-47.65519727 156.48664909 -49.71979949 154.33284663 -52.375 151.4375 C-60.54762263 143.10909424 -70.5826732 137.76355439 -80.67871094 132.08276367 C-105.99300149 117.70348594 -130.01445099 99.51091934 -138.8125 70.5625 C-142.26990379 55.32210515 -140.80784651 40.42020325 -133.25 26.75 C-127.81686247 18.23762835 -121.2316552 12.49266208 -111.875 8.75 C-98.02113213 6.06860622 -87.13400886 9.0940035 -75.5625 16.6875 C-74.00511769 17.69731535 -72.4440715 18.70150916 -70.87890625 19.69921875 C-70.2041626 20.14096436 -69.52941895 20.58270996 -68.83422852 21.0378418 C-66.90243142 22.23226332 -66.90243142 22.23226332 -64 22 C-62.61392255 20.33754502 -62.61392255 20.33754502 -61.375 18.125 C-47.02359552 -4.32116218 -23.77528256 -13.99233843 0 0 Z " fill="#DF0000" transform="translate(304,233)"/>
<path d="M0 0 C1.90942383 -0.0309375 1.90942383 -0.0309375 3.85742188 -0.0625 C27.16527324 -0.15729553 49.8202359 8.07952788 66.5625 24.4453125 C86.9458094 45.2339718 93.87969572 73.74669789 93.66821289 102.22192383 C93.26438852 118.13082909 90.86944894 134.00422021 86.3125 149.25 C85.98088867 150.395896 85.98088867 150.395896 85.64257812 151.56494141 C78.05183933 177.41768119 65.92411854 200.85430677 48.3125 221.25 C47.27029297 222.51070313 47.27029297 222.51070313 46.20703125 223.796875 C34.36581726 237.6871151 16.2638145 250.47569418 -2.36743164 252.5480957 C-5.12780422 252.68548309 -7.86147653 252.71744904 -10.625 252.6875 C-11.59066895 252.68137695 -12.55633789 252.67525391 -13.55126953 252.66894531 C-20.58636399 252.51443234 -26.39227755 251.53347933 -32.6875 248.25 C-33.38359375 247.93804687 -34.0796875 247.62609375 -34.796875 247.3046875 C-39.45053718 245.15823091 -43.50071106 242.37615797 -47.609375 239.32421875 C-49.59408194 238.07125903 -49.59408194 238.07125903 -51.6796875 238.3828125 C-54.11814433 239.43599814 -55.96012284 240.81228353 -58.0625 242.4375 C-71.75162644 252.28798416 -86.63870558 254.84811078 -103.1640625 252.82421875 C-127.19766151 248.05843208 -146.74963756 228.41521168 -160.6875 209.25 C-161.10209473 208.69425293 -161.51668945 208.13850586 -161.94384766 207.56591797 C-188.15938793 172.1650675 -200.1549546 125.15439768 -195 81.5625 C-190.44337903 56.51679716 -179.2263758 33.52861196 -158.140625 18.42578125 C-139.12731894 5.7594025 -118.51621119 0.86403183 -95.875 0.8125 C-94.62887939 0.80790771 -93.38275879 0.80331543 -92.09887695 0.79858398 C-82.47469714 0.91152235 -73.60651063 2.39916769 -64.24902344 4.52148438 C-51.29485699 7.38340259 -40.17529744 5.78147122 -27.50390625 2.1875 C-18.43191196 -0.04103493 -9.30399086 0.03712316 0 0 Z M-34.04418945 18.82324219 C-46.56507631 21.95519618 -56.72710242 21.97456903 -69.1796875 18.22265625 C-86.68309625 13.36926117 -110.52928888 14.24274884 -127.6875 20.25 C-128.88632813 20.6625 -130.08515625 21.075 -131.3203125 21.5 C-151.54578676 29.32348015 -164.79560538 43.64814852 -173.96875 62.9453125 C-182.43227949 82.88590091 -183.20985152 107.22250569 -178.6875 128.25 C-178.51605469 129.25289063 -178.34460938 130.25578125 -178.16796875 131.2890625 C-172.8074443 160.27047859 -160.00844766 186.41435141 -141.6875 209.25 C-141.05199219 210.054375 -140.41648438 210.85875 -139.76171875 211.6875 C-130.88607036 222.3306758 -115.1211945 236.03282297 -100.71728516 237.44287109 C-84.81813679 238.01453365 -72.94233274 236.18782886 -60.6875 225.25 C-59.84574219 224.51523437 -59.00398438 223.78046875 -58.13671875 223.0234375 C-55.9702955 221.11644596 -53.82190959 219.19266594 -51.6875 217.25 C-48.67716488 218.58286976 -46.81111666 219.99419314 -44.625 222.4375 C-35.38241415 231.87673662 -23.65605751 237.38517558 -10.4375 237.625 C6.51456522 237.4260321 21.64673907 227.95904031 33.3125 216.25 C50.36599483 198.12599381 61.07155753 176.47447424 69.3125 153.25 C69.56660645 152.55825684 69.82071289 151.86651367 70.08251953 151.15380859 C80.98628822 121.30673086 83.10715678 85.51134382 70.14501953 56.0234375 C62.87945545 40.54629454 50.14102094 28.04351395 34.41015625 21.34375 C12.30005808 13.53690575 -11.38828453 13.12192384 -34.04418945 18.82324219 Z " fill="#2844B3" transform="translate(301.6875,185.75)"/>
<path d="M0 0 C0.66 0 1.32 0 2 0 C8.64806974 26.04523778 13.60396691 53.79316308 5 80 C4.63777344 81.10472656 4.27554688 82.20945312 3.90234375 83.34765625 C-0.55106115 95.28881989 -7.76610198 103.1096251 -19 109 C-19.77214844 109.43441406 -20.54429687 109.86882812 -21.33984375 110.31640625 C-35.42887972 116.86997727 -54.734919 113.71425089 -69.14355469 109.50732422 C-71.21040413 108.9108476 -71.21040413 108.9108476 -74.2265625 108.44140625 C-77.25860462 107.73800743 -78.78732022 107.19821783 -81 105 C-84.73357328 95.66028728 -84.25616547 84.97051251 -84.375 75.0625 C-84.39651123 73.5007605 -84.39651123 73.5007605 -84.41845703 71.9074707 C-84.34606309 60.84267473 -82.0179427 51.91477065 -74 44 C-63.77817719 35.64433234 -51.0855464 32.82189365 -38.625 29.4375 C-23.91235033 25.43153482 -11.29883178 19.42967442 -3.11328125 5.96484375 C-2.00404262 4.00713488 -0.9862712 2.02208113 0 0 Z " fill="#2642B2" transform="translate(340,52)"/>
<path d="M0 0 C20.35975021 12.14927874 30.79900128 34.89554854 36.42724609 57.04418945 C38.56511807 65.93376369 40.1508396 74.82620961 40 84 C37.75487738 85.12256131 36.48543351 85.13413762 34 85.125 C32.948125 85.12886719 32.948125 85.12886719 31.875 85.1328125 C30 85 30 85 28 84 C27.50113621 81.49351364 27.10529062 79.027402 26.75 76.5 C22.94113454 52.80569323 11.57619299 30.7944346 -8.125 16.453125 C-12.71237639 13.01259271 -12.71237639 13.01259271 -13.5703125 9.9921875 C-13.76644038 6.44881039 -13.28511583 4.37065057 -11.125 1.5625 C-7.06495581 -1.42282661 -4.94301939 -1.07098754 0 0 Z " fill="#4D453B" transform="translate(217,102)"/>
</svg>
