<?xml version="1.0" encoding="utf-8"?>
<!-- Generator: Adobe Illustrator 18.0.0, SVG Export Plug-In . SVG Version: 6.00 Build 0)  -->
<!DOCTYPE svg PUBLIC "-//W3C//DTD SVG 1.1//EN" "http://www.w3.org/Graphics/SVG/1.1/DTD/svg11.dtd">
<svg version="1.1" id="Layer_1" xmlns="http://www.w3.org/2000/svg" xmlns:xlink="http://www.w3.org/1999/xlink" x="0px" y="0px"
	 viewBox="0 0 800 600" enable-background="new 0 0 800 600" xml:space="preserve">
<path fill="#231F20" d="M493.8,208.8v-49.4c0-20.6-16.9-37.5-37.5-37.5h-12L435.6,0h-81.6l-9.3,121.9h-10.4
	c-20.6,0-37.5,16.9-37.5,37.5v49.4c-17.3,15.4-28.1,37.9-28.1,63.1v290.6c0,20.6,16.9,37.5,37.5,37.5h178.1
	c20.6,0,37.5-16.9,37.5-37.5V271.9C521.9,246.7,511,224.2,493.8,208.8z M389.7,37.5h12.2l5.6,84.4h-24.4L389.7,37.5z M334.4,159.4
	h7.5h105h9.4v30.2c-6-1.3-12.3-2.1-18.8-2.1h-84.4c-6.5,0-12.7,0.7-18.8,2.1V159.4z M346.6,290.6v206.2h-40.3V290.6H346.6z
	 M484.4,562.5H306.2v-28.1h77.8V253.1h-74c7.1-16.7,23.5-28.1,43.1-28.1h84.4c26.2,0,46.9,20.6,46.9,46.9V562.5z"/>
</svg>
