<svg width="24" height="24" viewBox="0 0 24 24" fill="none" xmlns="http://www.w3.org/2000/svg">
<g clip-path="url(#clip0_1910_21)">
<path d="M16.5255 10.6656C16.6161 10.7572 16.6851 10.8641 16.7311 10.9789L18.0193 10.9729C18.3921 10.9709 18.7289 10.7501 18.8794 10.4089C19.075 9.96529 18.9023 9.45236 18.494 9.21267L18.4107 9.16999L19.359 8.84992C19.5962 8.76971 19.7919 8.59867 19.9032 8.37433C20.1352 7.90653 19.944 7.33922 19.4762 7.10721L19.1044 6.9221L19.3711 6.65632C19.9215 6.10587 19.9215 5.21343 19.3711 4.66299C18.8206 4.11254 17.9282 4.11254 17.3777 4.66299L17.0997 4.94008L16.8928 4.52378C16.7815 4.29944 16.5858 4.1284 16.3486 4.04819C15.8539 3.88093 15.3174 4.14635 15.1501 4.64102L14.8568 5.50576L14.8495 5.48459C14.7142 5.11666 14.3647 4.8714 13.9727 4.86928C13.4538 4.86649 13.0308 5.2849 13.028 5.80383L13.0207 7.22935C13.1085 7.27325 13.1904 7.3313 13.2628 7.40289M16.5255 10.6656C16.1583 10.2944 15.5596 10.2912 15.1884 10.6584L5.84167 19.9049C5.61177 20.1323 5.28157 20.2265 4.96629 20.1545M16.5255 10.6656C16.8006 10.9437 16.8759 11.3623 16.7156 11.7185L17.5342 11.3139C18.0023 11.0824 18.5694 11.2742 18.8009 11.7422C18.9119 11.9667 18.9293 12.226 18.8494 12.4633L18.6815 12.9611L19.5916 12.9612C20.3255 12.9612 20.9205 13.5561 20.9205 14.2901C20.9205 15.024 20.3255 15.619 19.5916 15.619L18.6815 15.6181L18.8494 16.1168C19.0161 16.6117 18.7501 17.148 18.2553 17.3147C18.018 17.3947 17.7587 17.3772 17.5342 17.2662L16.6385 16.8231L16.6661 16.9111C16.7852 17.3692 16.5447 17.8541 16.0926 18.0294C15.7451 18.1643 15.3507 18.0823 15.0857 17.8201L12.8607 15.619L7.47406 20.9478C6.73728 21.6766 5.55107 21.6766 4.81429 20.9478L3.72624 19.8714L4.96629 20.1545M4.96629 20.1545L3.99599 19.9325L3.77391 18.9621M3.77391 18.9621C3.70193 18.6468 3.79609 18.3166 4.02352 18.0867M3.77391 18.9621L4.057 20.2022L2.98063 19.1141C2.25175 18.3773 2.25175 17.1911 2.98063 16.4543L8.30944 11.0677L6.10827 8.84268C5.84609 8.57766 5.76411 8.18331 5.89895 7.83575C6.07433 7.38371 6.55916 7.14315 7.0173 7.26231L7.10532 7.28994L6.66219 6.39419C6.55116 6.16974 6.53372 5.9104 6.61368 5.6731C6.78041 5.17826 7.31673 4.91228 7.81157 5.07901L8.31032 5.24694L8.30944 4.33683C8.30944 3.6029 8.90441 3.00794 9.63833 3.00794C10.3723 3.00794 10.9672 3.6029 10.9672 4.33683L10.9673 5.24694L11.4651 5.07901C11.7024 4.99905 11.9617 5.0165 12.1862 5.12752C12.6542 5.35904 12.846 5.92614 12.6145 6.39419L12.2099 7.21279C12.5661 7.05253 12.9846 7.12775 13.2628 7.40289M4.02352 18.0867L10.5282 11.5109L13.0105 9.02928L13.0102 9.00206L13.27 8.73999M4.02352 18.0867L13.27 8.73999M13.27 8.73999C13.6372 8.36877 13.634 7.77013 13.2628 7.40289M16.7994 7.20059L15.8496 8.15045M9.63833 7.03783L9.63833 8.38113M7.29551 12.7519L11.2822 16.7385M16.8906 14.2901L15.5473 14.2901" stroke="black" stroke-linecap="round"/>
</g>
<defs>
<clipPath id="clip0_1910_21">
<rect width="24" height="24" fill="white"/>
</clipPath>
</defs>
</svg>
